<svg width="20" height="19" viewBox="0 0 20 19" fill="none" xmlns="http://www.w3.org/2000/svg">
<path d="M13.7808 17.452L14.0424 14.4185C14.0778 13.9589 14.4879 13.5487 14.9475 13.5134L17.981 13.2517C18.5537 13.0608 18.8295 12.4032 18.5608 11.8517L17.9315 10.6001C17.783 10.296 17.3729 10.0415 17.0335 10.0415L13.8161 10.0344C13.5828 10.0415 13.2646 9.90713 13.1019 9.7445L11.0867 7.72924C10.7897 7.43226 10.8675 7.07163 11.2564 6.909L16.2274 4.93617C17.0052 4.62504 17.1607 3.88965 16.5668 3.29568L15.6546 2.38351C15.1808 1.90975 14.2828 1.71883 13.6606 1.97339L8.0037 4.22199C7.84107 4.28563 7.59358 4.23613 7.4663 4.10885L5.34498 1.98753C4.6803 1.32285 3.40751 1.02587 2.50948 1.31578C2.19129 1.42185 1.9438 1.66934 1.83773 1.98753C1.54782 2.88556 1.85188 4.16542 2.51656 4.8301L4.63788 6.95142C4.76516 7.0787 4.81465 7.32619 4.75101 7.48883L2.50948 13.1386C2.24785 13.7538 2.43877 14.6518 2.91253 15.1256L3.8247 16.0377C4.41867 16.6317 5.15406 16.4762 5.46519 15.6983L7.43802 10.7274C7.58651 10.3385 7.96128 10.2607 8.25826 10.5577L10.2735 12.5729C10.4362 12.7356 10.5705 13.0538 10.5705 13.28L10.5776 16.4974C10.5776 16.8368 10.8251 17.2398 11.1362 17.3954L12.3878 18.0247C12.9252 18.3076 13.5898 18.0389 13.7808 17.452Z" stroke="#282828" stroke-opacity="0.9" stroke-width="1.5" stroke-linecap="round" stroke-linejoin="round"/>
</svg>
