<svg width="16" height="11" viewBox="0 0 16 11" fill="none" xmlns="http://www.w3.org/2000/svg">
<path d="M14.6667 0.200001H1.33333C0.875 0.200001 0.5 0.575001 0.5 1.03333V6.16667C0.5 8.66667 1.75 10.3333 4.66667 10.3333H11.3333C14.25 10.3333 15.5 8.66667 15.5 6.16667V1.03333C15.5 0.575001 15.125 0.200001 14.6667 0.200001ZM5.675 7.175C5.63333 7.20833 5.59167 7.25 5.55 7.275C5.5 7.30833 5.45 7.33333 5.4 7.35C5.35 7.375 5.3 7.39167 5.25 7.4C5.19167 7.40833 5.14167 7.41667 5.08333 7.41667C4.975 7.41667 4.86667 7.39167 4.76667 7.35C4.65833 7.30833 4.575 7.25 4.49167 7.175C4.34167 7.01667 4.25 6.8 4.25 6.58333C4.25 6.36667 4.34167 6.15 4.49167 5.99167C4.575 5.91667 4.65833 5.85833 4.76667 5.81667C4.91667 5.75 5.08333 5.73334 5.25 5.76667C5.3 5.775 5.35 5.79167 5.4 5.81667C5.45 5.83333 5.5 5.85833 5.55 5.89167C5.59167 5.925 5.63333 5.95834 5.675 5.99167C5.825 6.15 5.91667 6.36667 5.91667 6.58333C5.91667 6.8 5.825 7.01667 5.675 7.175ZM5.675 4.25833C5.51667 4.40833 5.3 4.5 5.08333 4.5C4.86667 4.5 4.65 4.40833 4.49167 4.25833C4.34167 4.1 4.25 3.88333 4.25 3.66667C4.25 3.45 4.34167 3.23333 4.49167 3.075C4.725 2.84167 5.09167 2.76667 5.4 2.9C5.50833 2.94167 5.6 3 5.675 3.075C5.825 3.23333 5.91667 3.45 5.91667 3.66667C5.91667 3.88333 5.825 4.1 5.675 4.25833ZM8.59167 7.175C8.43333 7.325 8.21667 7.41667 8 7.41667C7.78333 7.41667 7.56667 7.325 7.40833 7.175C7.25833 7.01667 7.16667 6.8 7.16667 6.58333C7.16667 6.36667 7.25833 6.15 7.40833 5.99167C7.71667 5.68334 8.28333 5.68334 8.59167 5.99167C8.74167 6.15 8.83333 6.36667 8.83333 6.58333C8.83333 6.8 8.74167 7.01667 8.59167 7.175ZM8.59167 4.25833C8.55 4.29167 8.50833 4.325 8.46667 4.35833C8.41667 4.39167 8.36667 4.41667 8.31667 4.43333C8.26667 4.45833 8.21667 4.475 8.16667 4.48333C8.10833 4.49167 8.05833 4.5 8 4.5C7.78333 4.5 7.56667 4.40833 7.40833 4.25833C7.25833 4.1 7.16667 3.88333 7.16667 3.66667C7.16667 3.45 7.25833 3.23333 7.40833 3.075C7.48333 3 7.575 2.94167 7.68333 2.9C7.99167 2.76667 8.35833 2.84167 8.59167 3.075C8.74167 3.23333 8.83333 3.45 8.83333 3.66667C8.83333 3.88333 8.74167 4.1 8.59167 4.25833ZM11.5083 7.175C11.35 7.325 11.1333 7.41667 10.9167 7.41667C10.7 7.41667 10.4833 7.325 10.325 7.175C10.175 7.01667 10.0833 6.8 10.0833 6.58333C10.0833 6.36667 10.175 6.15 10.325 5.99167C10.6333 5.68334 11.2 5.68334 11.5083 5.99167C11.6583 6.15 11.75 6.36667 11.75 6.58333C11.75 6.8 11.6583 7.01667 11.5083 7.175ZM11.5083 4.25833C11.4667 4.29167 11.425 4.325 11.3833 4.35833C11.3333 4.39167 11.2833 4.41667 11.2333 4.43333C11.1833 4.45833 11.1333 4.475 11.0833 4.48333C11.025 4.49167 10.9667 4.5 10.9167 4.5C10.7 4.5 10.4833 4.40833 10.325 4.25833C10.175 4.1 10.0833 3.88333 10.0833 3.66667C10.0833 3.45 10.175 3.23333 10.325 3.075C10.4083 3 10.4917 2.94167 10.6 2.9C10.75 2.83333 10.9167 2.81667 11.0833 2.85C11.1333 2.85833 11.1833 2.875 11.2333 2.9C11.2833 2.91667 11.3333 2.94167 11.3833 2.975C11.425 3.00833 11.4667 3.04167 11.5083 3.075C11.6583 3.23333 11.75 3.45 11.75 3.66667C11.75 3.88333 11.6583 4.1 11.5083 4.25833Z" fill="#444444"/>
</svg>
